# xmcd
# 
# Track frame offsets:
#     150
#     23544
#     43198
#     63077
# 
# Disc length: 1070
# 
# Revision: 0
# Processed by: cddbd v1.5.2PL0 Copyright (c) Steve Scherf et al.
# Submitted via: fre:ac v1.0.31
# 
DISCID=27042c04
DTITLE=Gabriel Sullivan and the Taraf De Tucson - Live at Rialto Theatire
DYEAR=2010
DGENRE=Mexican/World
TTITLE0=Beggar's Dance
TTITLE1=Me and The Dog
TTITLE2=None of This Is Mine
TTITLE3=Black Road Blues, W/ Y LA Orkesta
EXTD=Accordion violyn guitar Trometa Sax Drums Vocals Contra Bajo
EXTT0=
EXTT1=
EXTT2=
EXTT3=
PLAYORDER=
